<svg xmlns="http://www.w3.org/2000/svg" width="20.418" height="20.417" viewBox="0 0 20.418 20.417">
  <g id="Group_3934" data-name="Group 3934" transform="translate(0 -1.001)">
    <path id="Path_1166" data-name="Path 1166" d="M16.164,93.122a.851.851,0,0,0-.851.851v6.806a.852.852,0,0,1-.851.851H2.552a.852.852,0,0,1-.851-.851V88.868a.852.852,0,0,1,.851-.851H9.358a.851.851,0,0,0,0-1.7H2.552A2.555,2.555,0,0,0,0,88.868v11.911a2.555,2.555,0,0,0,2.552,2.552H14.463a2.555,2.555,0,0,0,2.552-2.552V93.973A.85.85,0,0,0,16.164,93.122Z" transform="translate(0 -81.912)"/>
    <path id="Path_1167" data-name="Path 1167" d="M182.534,75.493a.43.43,0,0,0-.117.217l-.6,3.008a.425.425,0,0,0,.418.509.406.406,0,0,0,.083-.008l3.007-.6a.424.424,0,0,0,.218-.117l6.731-6.731-3.007-3.007Z" transform="translate(-174.558 -65.059)"/>
    <path id="Path_1168" data-name="Path 1168" d="M395.63,1.623a2.128,2.128,0,0,0-3.007,0L391.445,2.8l3.007,3.007,1.177-1.178a2.127,2.127,0,0,0,0-3.007Z" transform="translate(-375.835)"/>
  </g>
</svg>
