<svg id="Group_3932" data-name="Group 3932" xmlns="http://www.w3.org/2000/svg" width="37.57" height="30.778" viewBox="0 0 37.57 30.778">
  <path id="Path_1152" data-name="Path 1152" d="M18.914,77.055,0,56.072l6.571-9.8h24.4l6.558,9.777Z" transform="translate(0 -46.277)" fill="#ff3997"/>
  <path id="Path_1153" data-name="Path 1153" d="M257.828,77.05l18.605-21-6.558-9.777H257.828Z" transform="translate(-238.909 -46.277)" fill="#d6298c"/>
  <path id="Path_1154" data-name="Path 1154" d="M0,179.767,18.914,200.75l18.557-20.942Z" transform="translate(0 -169.972)" fill="#ff5ca8"/>
  <g id="Group_3929" data-name="Group 3929" transform="translate(11.134 9.816)">
    <path id="Path_1155" data-name="Path 1155" d="M257.828,180.05v20.957l18.553-20.937Z" transform="translate(-250.043 -180.05)" fill="#ff3997"/>
    <path id="Path_1156" data-name="Path 1156" d="M159.512,201.269l-7.781-20.942h15.3Z" transform="translate(-151.732 -180.307)" fill="#ff3997"/>
  </g>
  <g id="Group_3930" data-name="Group 3930">
    <path id="Path_1157" data-name="Path 1157" d="M167.034,56.113h-15.3l7.786-9.836Z" transform="translate(-140.598 -46.277)" fill="#d6298c"/>
    <path id="Path_1158" data-name="Path 1158" d="M0,56.072l11.134.041L6.571,46.277Z" transform="translate(0 -46.277)" fill="#d6298c"/>
  </g>
  <path id="Path_1159" data-name="Path 1159" d="M371.4,56.072l-11.134.041,4.563-9.836Z" transform="translate(-333.832 -46.277)" fill="#ff5ca8"/>
  <path id="Path_1160" data-name="Path 1160" d="M257.828,180.327v20.929l7.517-20.929Z" transform="translate(-238.909 -170.491)" fill="#d6298c"/>
  <g id="Group_3931" data-name="Group 3931" transform="translate(18.919)">
    <path id="Path_1161" data-name="Path 1161" d="M257.828,46.288v9.836h7.517Z" transform="translate(-257.828 -46.287)" fill="#bf1b81"/>
    <path id="Path_1162" data-name="Path 1162" d="M371.4,56.072l-11.134.041,4.563-9.836Z" transform="translate(-352.751 -46.277)" fill="#bf1b81"/>
  </g>
</svg>
