<svg xmlns="http://www.w3.org/2000/svg" width="95.15" height="63.605" viewBox="0 0 95.15 63.605">
  <path id="Path_1" data-name="Path 1" d="M78.81,124.882,73.324,119.4l-5.486,5.486,5.486,5.486ZM89.678,114.56l-3.895-3.895-3.9,3.895,3.9,3.9Zm-12.459,0-3.895-3.895-3.9,3.895,3.9,3.9Zm-.62,27.679a16.228,16.228,0,0,1,4.428,5.7c.056.118.108.237.162.355v-8.934H71.414A16.86,16.86,0,0,1,76.6,142.238Zm-1.787-10.846,6.347,6.482,4.624-17.157ZM64.76,114.56l-3.895-3.895-3.9,3.895,3.9,3.9ZM67.1,137.874l5.486-5.486L67.1,126.9l-5.486,5.486Zm8.171,5.7a16.919,16.919,0,0,0-6.29-3.225,26.813,26.813,0,0,0-6.9-.772H52.992V173.18h9.265a27.327,27.327,0,0,0,7.266-.817,15.223,15.223,0,0,0,6.29-3.475,16.718,16.718,0,0,0,4.11-5.722,17.109,17.109,0,0,0,1.408-6.88,16.838,16.838,0,0,0-6.063-12.716ZM72.793,167a13.125,13.125,0,0,1-5.768,2.679,35.69,35.69,0,0,1-6.313.409h-4.36V142.661h5.631a24.132,24.132,0,0,1,5.881.659,14.315,14.315,0,0,1,4.928,2.339,13.589,13.589,0,0,1,0,21.345ZM48.78,139.572l-4.269-.027-13.1,16.284,1.973,2.784,11.287,14.539,4.143.028L35.559,155.929ZM97.316,158.1v3.088h18.71a12.777,12.777,0,0,1-5.086,7.062A14.252,14.252,0,0,1,102.493,171a14.715,14.715,0,0,1-10.422-4.11,13.359,13.359,0,0,1-4.383-10.15A13.183,13.183,0,0,1,88.96,151.2a14.509,14.509,0,0,1,3.338-4.678,13.528,13.528,0,0,1,4.678-2.838,15.793,15.793,0,0,1,5.336-.931,15.024,15.024,0,0,1,6.926,1.658,11.844,11.844,0,0,1,4.973,4.61h3.815a9.706,9.706,0,0,0-2.407-3.77,19.626,19.626,0,0,0-3.406-2.861A18.381,18.381,0,0,0,89.5,144.659a18.124,18.124,0,0,0-3.792,5.54,15.784,15.784,0,0,0-1.385,6.449,16.682,16.682,0,0,0,5.359,12.444,17.572,17.572,0,0,0,12.625,5.177,18.163,18.163,0,0,0,12.307-4.632,14.747,14.747,0,0,0,5.5-11.535ZM52.3,114.56l-3.895-3.895-3.9,3.895,3.9,3.9ZM24.965,173.18h4.881V139.572H24.965ZM53.03,137.874l6.347-6.482L48.406,120.717Zm13.32-12.992L60.865,119.4l-5.486,5.486,5.486,5.486Z" transform="translate(-24.965 -110.665)"/>
</svg>
