<svg width="21" height="22" viewBox="0 0 21 22" fill="none" xmlns="http://www.w3.org/2000/svg">
  <path d="M19.9201 21.1886C20.1968 21.1886 20.4734 21.0829 20.6836 20.8702C21.1055 20.4464 21.1055 19.7594 20.6836 19.3356L1.84436 0.414023C1.42243 -0.00975245 0.738379 -0.00975245 0.316448 0.414023C-0.105482 0.837798 -0.105482 1.52484 0.316448 1.94888L19.1554 20.8702C19.3671 21.0816 19.6438 21.1886 19.9201 21.1886Z" fill="#C4C4C4" />
  <path d="M1.07961 21.1886C1.35624 21.1886 1.63261 21.0829 1.84304 20.8702L20.6836 1.94888C21.1055 1.52484 21.1055 0.837798 20.6836 0.414023C20.2616 -0.00975245 19.5776 -0.00975245 19.1554 0.414023L0.316448 19.3356C-0.105482 19.7594 -0.105482 20.4464 0.316448 20.8702C0.528204 21.0816 0.804567 21.1886 1.07961 21.1886Z" fill="#C4C4C4" />
</svg>
