<svg width="31" height="19" viewBox="0 0 31 19" fill="none" xmlns="http://www.w3.org/2000/svg">
  <path d="M19.7757 5.99319L16.0105 9.75842L19.7757 13.5237L23.541 9.75842L19.7757 5.99319Z" fill="#905900" />
  <path d="M28.3268 1.49957e-05L25.6537 2.6731L28.3268 5.34618L30.9998 2.6731L28.3268 1.49957e-05Z" fill="#905900" />
  <path d="M19.7751 1.49957e-05L17.1021 2.6731L19.7751 5.34618L22.4482 2.6731L19.7751 1.49957e-05Z" fill="#905900" />
  <path d="M20.7971 14.2266L25.1537 18.675L28.328 6.89917L20.7971 14.2266Z" fill="#905900" />
  <path d="M11.2241 0.00135777L8.55103 2.67444L11.2241 5.34752L13.8972 2.67444L11.2241 0.00135777Z" fill="#905900" />
  <path d="M15.5019 11.1457L11.7366 14.9109L15.5017 18.6762L19.267 14.911L15.5019 11.1457Z" fill="#905900" />
  <path d="M2.67308 0.00135777L0 2.67444L2.67308 5.34752L5.34616 2.67444L2.67308 0.00135777Z" fill="#905900" />
  <path d="M5.84709 18.6756L10.2037 14.2273L2.67285 6.90063L5.84709 18.6756Z" fill="#905900" />
  <path d="M11.2247 5.99319L7.45947 9.75842L11.2247 13.5237L14.9899 9.75842L11.2247 5.99319Z" fill="#905900" />
</svg>
