<svg xmlns="http://www.w3.org/2000/svg" width="10.069" height="21.673" viewBox="0 0 10.069 21.673">
  <g id="Group_23" data-name="Group 23" transform="translate(0 0)">
    <g id="Group_22" data-name="Group 22" transform="translate(0)">
      <path id="Path_22" data-name="Path 22" d="M335.3,734.27v10.479a.273.273,0,0,0,.273.273h3.891a.273.273,0,0,0,.273-.273V734.1h2.821a.273.273,0,0,0,.272-.25l.271-3.208a.273.273,0,0,0-.272-.3h-3.093v-2.276a.966.966,0,0,1,.966-.966h2.174a.273.273,0,0,0,.273-.273v-3.208a.273.273,0,0,0-.273-.273H339.2a3.9,3.9,0,0,0-3.9,3.9v3.093h-1.945a.273.273,0,0,0-.273.273v3.209a.273.273,0,0,0,.273.273H335.3Z" transform="translate(-333.079 -723.348)" fill="#707070" fill-rule="evenodd"/>
    </g>
  </g>
</svg>
