<svg xmlns="http://www.w3.org/2000/svg" width="22.608" height="22.608" viewBox="0 0 22.608 22.608">
  <g id="Group_24" data-name="Group 24" transform="translate(0 0)">
    <path id="Path_23" data-name="Path 23" d="M394.091,727.07a1.329,1.329,0,1,0,1.33,1.329A1.329,1.329,0,0,0,394.091,727.07Zm-5.909,1.7a5.583,5.583,0,1,0,5.583,5.582A5.59,5.59,0,0,0,388.182,728.774Zm0,9.159a3.576,3.576,0,1,1,3.577-3.577A3.581,3.581,0,0,1,388.182,737.933Zm11.265-8.216a6.81,6.81,0,0,0-6.81-6.81h-8.987a6.81,6.81,0,0,0-6.811,6.81v8.989a6.81,6.81,0,0,0,6.811,6.809h8.987a6.809,6.809,0,0,0,6.81-6.809Zm-2.133,8.989a4.676,4.676,0,0,1-4.677,4.676h-8.987a4.677,4.677,0,0,1-4.678-4.676v-8.989a4.678,4.678,0,0,1,4.678-4.677h8.987a4.677,4.677,0,0,1,4.677,4.677Z" transform="translate(-376.84 -722.907)" fill="#707070"/>
  </g>
</svg>
