<svg xmlns="http://www.w3.org/2000/svg" width="21.073" height="17.357" viewBox="0 0 21.073 17.357">
  <g id="Group_21" data-name="Group 21" transform="translate(0)">
    <g id="Group_20" data-name="Group 20" transform="translate(0)">
      <g id="Group_15" data-name="Group 15">
        <path id="Path_17" data-name="Path 17" d="M293.028,728.848a8.673,8.673,0,0,1-2.129.608c.343-.057.849-.678,1.051-.929a3.919,3.919,0,0,0,.709-1.291c.018-.036.032-.083,0-.111a.122.122,0,0,0-.113.01,10.888,10.888,0,0,1-2.528.968.168.168,0,0,1-.174-.047,2.145,2.145,0,0,0-.221-.226,4.457,4.457,0,0,0-1.225-.75,4.267,4.267,0,0,0-1.879-.3,4.5,4.5,0,0,0-1.782.5,4.6,4.6,0,0,0-1.438,1.174,4.42,4.42,0,0,0-.859,1.72,4.663,4.663,0,0,0-.045,1.815c.014.1.005.115-.087.1a13.5,13.5,0,0,1-8.688-4.423c-.1-.115-.156-.115-.24.009a4.406,4.406,0,0,0,.752,5.206c.17.161.345.323.534.47a4.438,4.438,0,0,1-1.677-.47c-.1-.064-.153-.027-.162.088a2.648,2.648,0,0,0,.028.5,4.455,4.455,0,0,0,2.746,3.551,2.54,2.54,0,0,0,.557.17,4.965,4.965,0,0,1-1.644.051c-.12-.023-.165.037-.12.152a4.627,4.627,0,0,0,3.455,2.893c.157.027.314.027.471.064-.009.015-.019.015-.028.028a5.473,5.473,0,0,1-2.36,1.251,8.449,8.449,0,0,1-3.583.459c-.193-.028-.233-.026-.286,0s-.006.079.055.129c.244.161.493.3.747.442a11.825,11.825,0,0,0,2.4.958,12.759,12.759,0,0,0,12.386-2.9c2.538-2.522,3.428-6,3.428-9.482,0-.136.161-.211.257-.283A8.343,8.343,0,0,0,293,729.2a.509.509,0,0,0,.1-.336v-.018C293.106,728.793,293.113,728.81,293.028,728.848Z" transform="translate(-272.033 -726.768)" fill="#707070"/>
      </g>
      <g id="Group_16" data-name="Group 16" transform="translate(6.258 17.283)">
        <path id="Path_18" data-name="Path 18" d="M281.951,754.157Z" transform="translate(-281.951 -754.157)" fill="#707070" fill-rule="evenodd"/>
      </g>
      <g id="Group_17" data-name="Group 17" transform="translate(6.097 17.283)">
        <path id="Path_19" data-name="Path 19" d="M281.857,754.157c-.027,0-.348,0,0,0Z" transform="translate(-281.696 -754.157)" fill="#707070" fill-rule="evenodd"/>
      </g>
      <g id="Group_18" data-name="Group 18" transform="translate(6.968 17.285)">
        <path id="Path_20" data-name="Path 20" d="M283.076,754.177c0-.035.373,0,0,0C283.076,754.159,283.121,754.177,283.076,754.177Z" transform="translate(-283.076 -754.161)" fill="#707070" fill-rule="evenodd"/>
      </g>
      <g id="Group_19" data-name="Group 19" transform="translate(14.334 0.026)">
        <path id="Path_21" data-name="Path 21" d="M294.837,726.809a.077.077,0,0,1-.088,0Z" transform="translate(-294.749 -726.809)" fill="#707070" fill-rule="evenodd"/>
      </g>
    </g>
  </g>
</svg>
