<svg xmlns="http://www.w3.org/2000/svg" width="21.328" height="14.93" viewBox="0 0 21.328 14.93">
  <g id="Group_14" data-name="Group 14" transform="translate(0 0)">
    <g id="Group_13" data-name="Group 13">
      <g id="Group_12" data-name="Group 12">
        <path id="Path_16" data-name="Path 16" d="M232.112,735.289a4.643,4.643,0,0,0-4.643-4.643H215.427a4.644,4.644,0,0,0-4.643,4.643v5.644a4.643,4.643,0,0,0,4.643,4.643h12.042a4.643,4.643,0,0,0,4.643-4.643Zm-7.6,3.106-4.8,2.634c-.209.113-.4-.038-.4-.275v-5.407c0-.24.194-.391.4-.272l4.835,2.773A.314.314,0,0,1,224.515,738.4Z" transform="translate(-210.784 -730.646)" fill="#707070"/>
      </g>
    </g>
  </g>
</svg>
