<svg xmlns="http://www.w3.org/2000/svg" width="22.82" height="18.789" viewBox="0 0 22.82 18.789">
  <path id="Path_1163" data-name="Path 1163" d="M16.975,45.289l.032-.06-3.9-5.818h-.019l-.253-.135H-1.657l-.253.135-3.9,5.818.027.374L5.447,58.066l.455,0L16.924,45.626h0l.031-.035ZM8.742,53.94,6.5,56.473l3.859-10.745,1.285,0,4.377,0ZM5.982,40.484l3.536,4.627-3.536,0Zm3.726,5.245L5.982,56.1V45.729Zm6.456-.632-4.521.017H10.622l2.27-4.893Zm-10.792.01L1.7,45.1l3.675-4.643Zm0,.623V56.172L1.492,45.729Zm4.705-.892-3.783-4.95h6.079Zm-8.956.009-2.3-4.959H5.046ZM-1.706,40.2.567,45.1-4.988,45.1l.605-.9Zm-3.166,5.505,5.712.021L4.832,56.472l-7.3-8.1Z" transform="translate(5.813 -39.277)" fill="#525252"/>
</svg>
